<svg width="234" height="35" viewBox="0 0 234 35" fill="none" xmlns="http://www.w3.org/2000/svg">
<path d="M10.52 27.48C4.6 27.48 0.28 23.28 0.28 17.32C0.28 11.4 4.6 7.2 10.52 7.2C14.48 7.2 16.88 8.92 18.16 10.68L14.84 13.8C13.92 12.44 12.52 11.72 10.76 11.72C7.68 11.72 5.52 13.96 5.52 17.32C5.52 20.68 7.68 22.96 10.76 22.96C12.52 22.96 13.92 22.16 14.84 20.84L18.16 23.96C16.88 25.72 14.48 27.48 10.52 27.48ZM28.0409 27.48C21.6809 27.48 17.8409 22.8 17.8409 17.32C17.8409 11.84 21.6809 7.2 28.0409 7.2C34.4409 7.2 38.2809 11.84 38.2809 17.32C38.2809 22.8 34.4409 27.48 28.0409 27.48ZM28.0409 22.96C31.2409 22.96 33.0009 20.36 33.0009 17.32C33.0009 14.32 31.2409 11.72 28.0409 11.72C24.8809 11.72 23.1209 14.32 23.1209 17.32C23.1209 20.36 24.8809 22.96 28.0409 22.96ZM68.7688 27H63.6488V14.8C63.6488 13 62.8488 11.72 60.7688 11.72C58.9688 11.72 57.4888 12.92 56.7688 13.96V27H51.6488V14.8C51.6488 13 50.8488 11.72 48.7688 11.72C47.0088 11.72 45.5288 12.92 44.7688 13.96V27H39.6888V7.68H44.7688V10.16C45.6088 9.04 48.1288 7.2 51.0888 7.2C53.9288 7.2 55.7688 8.52 56.4488 10.68C57.5688 8.96 60.1288 7.2 63.0888 7.2C66.6488 7.2 68.7688 9.08 68.7688 13.04V27ZM82.4303 27.48C80.1503 27.48 78.0703 26.52 76.4703 24.52V34.36H71.3903V7.68H76.4703V10.12C77.9503 8.24 80.0703 7.2 82.4303 7.2C87.3903 7.2 90.9903 10.88 90.9903 17.32C90.9903 23.76 87.3903 27.48 82.4303 27.48ZM80.8303 22.96C83.7503 22.96 85.7503 20.68 85.7503 17.32C85.7503 14 83.7503 11.72 80.8303 11.72C79.1903 11.72 77.3503 12.64 76.4703 13.92V20.72C77.3103 21.96 79.1903 22.96 80.8303 22.96ZM110.431 27H105.351V24.56C104.031 26 101.711 27.48 98.5506 27.48C94.3106 27.48 92.3106 25.16 92.3106 21.4V7.68H97.3906V19.4C97.3906 22.08 98.7906 22.96 100.951 22.96C102.911 22.96 104.471 21.88 105.351 20.76V7.68H110.431V27ZM119.555 27.48C115.995 27.48 114.115 25.64 114.115 22.16V12.12H110.915V7.68H114.115V2.4H119.195V7.68H123.115V12.12H119.195V20.8C119.195 22.04 119.835 22.96 120.955 22.96C121.715 22.96 122.435 22.68 122.715 22.36L123.795 26.24C123.035 26.92 121.675 27.48 119.555 27.48ZM133.27 27.48C127.39 27.48 122.95 23.52 122.95 17.32C122.95 11.72 127.11 7.2 132.95 7.2C138.75 7.2 142.63 11.52 142.63 17.8V19H128.27C128.63 21.36 130.55 23.32 133.83 23.32C135.47 23.32 137.71 22.64 138.95 21.44L141.23 24.8C139.31 26.56 136.27 27.48 133.27 27.48ZM137.75 15.48C137.59 13.64 136.31 11.36 132.95 11.36C129.79 11.36 128.43 13.56 128.23 15.48H137.75ZM148.98 20.8C149.86 22.04 151.7 22.96 153.38 22.96C156.3 22.96 158.26 20.68 158.26 17.32C158.26 14 156.3 11.72 153.38 11.72C151.7 11.72 149.86 12.68 148.98 13.96V20.8ZM148.98 27H143.9V0.319998H148.98V10.16C150.5 8.16 152.66 7.2 154.94 7.2C159.86 7.2 163.5 11.04 163.5 17.32C163.5 23.8 159.82 27.48 154.94 27.48C152.62 27.48 150.5 26.44 148.98 24.52V27ZM181.657 27H176.537V24.96C175.217 26.56 172.937 27.48 170.417 27.48C167.337 27.48 163.737 25.4 163.737 21.08C163.737 16.52 167.337 14.84 170.417 14.84C173.017 14.84 175.257 15.68 176.537 17.2V14.76C176.537 12.8 174.857 11.52 172.297 11.52C170.257 11.52 168.337 12.32 166.737 13.8L164.737 10.24C167.097 8.12 170.137 7.2 173.177 7.2C177.617 7.2 181.657 8.96 181.657 14.52V27ZM172.457 24.04C174.097 24.04 175.697 23.48 176.537 22.36V19.96C175.697 18.84 174.097 18.24 172.457 18.24C170.457 18.24 168.817 19.32 168.817 21.16C168.817 23 170.457 24.04 172.457 24.04ZM203.136 27H196.776L191.656 19.56L189.336 22.04V27H184.256V0.319998H189.336V16.28L196.656 7.68H202.896L195.256 16.44L203.136 27ZM212.108 27.48C206.228 27.48 201.788 23.52 201.788 17.32C201.788 11.72 205.948 7.2 211.788 7.2C217.588 7.2 221.468 11.52 221.468 17.8V19H207.108C207.468 21.36 209.388 23.32 212.668 23.32C214.308 23.32 216.548 22.64 217.788 21.44L220.068 24.8C218.148 26.56 215.108 27.48 212.108 27.48ZM216.588 15.48C216.428 13.64 215.148 11.36 211.788 11.36C208.628 11.36 207.268 13.56 207.068 15.48H216.588ZM227.817 27H222.737V7.68H227.817V10.28C229.217 8.6 231.577 7.2 233.977 7.2V12.16C233.617 12.08 233.177 12.04 232.577 12.04C230.897 12.04 228.657 13 227.817 14.24V27Z" fill="black"/>
</svg>
