<svg width="36" height="26" viewBox="0 0 36 26" fill="none" xmlns="http://www.w3.org/2000/svg">
<path d="M36 22C36 24.209 34.209 26 32 26H4C1.791 26 0 24.209 0 22V4C0 1.791 1.791 0 4 0H32C34.209 0 36 1.791 36 4V22Z" fill="#E30917"/>
<path d="M16 19C12.686 19 10 16.315 10 13C10 9.686 12.686 7 16 7C17.31 7 18.52 7.425 19.507 8.138C18.159 6.614 16.195 5.647 14 5.647C9.939 5.647 6.647 8.939 6.647 13C6.647 17.062 9.939 20.354 14 20.354C16.195 20.354 18.16 19.387 19.507 17.862C18.521 18.575 17.312 19 16 19ZM19.913 13.23L22.353 13.792L22.573 16.285L23.861 14.139L26.301 14.7L24.657 12.812L25.944 10.665L23.641 11.645L21.997 9.756L22.217 12.25L19.913 13.23Z" fill="#EEEEEE"/>
</svg>
